<svg id="Layer_1" data-name="Layer 1" xmlns="http://www.w3.org/2000/svg" viewBox="0 0 584.17 528.88"><g id="others"><path d="M322.24,26.92c-1.79-4.71-5.89-4.59-10-5.11-8.28-1.06-16.47-.06-24.67.62a38.61,38.61,0,0,0-9.34,2.27c-3.18,1.1-6.18,2.7-9.26,4.08a5.8,5.8,0,0,1-1.38.56c-8,1.07-14.12,6-20.9,9.65-5.73,3.08-11.56,6-17.21,9.2-2.18,1.25-4,3.2-5.93,4.82s-4.12,3.29-6.07,5.05c-2.87,2.58-5.69,5.24-8.44,8-.55.56-.7,1.53-1.25,2.81a24.91,24.91,0,0,0,2.33-.93c8.29-4.6,17.23-5.41,26.46-4.54,2.3.22,4.6.49,6.9.75,1.61.19,3.1.78,2.84,2.7s-1.91,1.93-3.49,1.81c-4.69-.35-9.39-.76-14.09-1-6-.23-11.53,1.79-16.84,4.43-1.51.75-3,1.87-4.88.84-.37-.2-1.41.59-2,1.1-5.78,5.17-11.52,10.38-17.78,15.53.34-1.4.35-3,1.08-4.15a91,91,0,0,1,7.11-10c5.09-6,10.53-11.75,15.71-17.7,7.41-8.5,16.86-14.2,26.67-19.25,10.12-5.2,20.46-10,30.93-14.47,5.91-2.52,12.28-4,18.47-5.83a17.83,17.83,0,0,1,2.21-.09c1.74-.28,3.69-.25,5.14-1.08,3-1.72,5.88-.24,8.79-.19a110.81,110.81,0,0,1,11.94.79c6.06.77,12.08,1.86,18.12,2.73,4.41.63,8.86,1,13.23,1.75a23.45,23.45,0,0,1,7.19,2.45c6.39,3.59,12.87,7.2,17.71,12.83,3.83,4.45,7.15,9.35,10.61,14.11a7.57,7.57,0,0,1,1.13,2.94c.23,1.22-.38,2.78,1.67,3a10.1,10.1,0,0,1,.12,1.63c1.1-1.1,2.07-2,2.78.18.15.44,1.14.55,1.64.94.78.6,1.49,1.3,2.21,2a3.38,3.38,0,0,1,1.14,1.72c.33.62.64,1.26,1,1.86.49.81,1,1.59,1.53,2.38,1.61,2.39,3.13,4.86,4.88,7.14A32.67,32.67,0,0,0,404.14,79a26.89,26.89,0,0,1,7,9.92,133.57,133.57,0,0,0,6.06,12.45c3.34,6.29,4.38,13.17,5.33,20.07,1.1,8,2.43,16,3.17,24,.86,9.16.78,18.32-3.9,26.72a17.12,17.12,0,0,1-2.69,2.79c.16.93.46,2.62.81,4.59-.12-.1,0,.09.12.08,4.79-.37,7.08,1.69,9.23,9.33,2.34,8.28,4.12,16.8,3.09,25.44-.82,6.86-2.59,13.62-4,20.42-.73,3.51-1.55,7-2.37,10.51a10.55,10.55,0,0,1-1,3.25,38.37,38.37,0,0,0-5.62,12.91,4.53,4.53,0,0,1-1.77,2.3c-2.75,2.08-5.55,4.1-8.42,6a6.59,6.59,0,0,1-6.07,1,6.56,6.56,0,0,0-2.08,0,7,7,0,0,0-.88-2.18,2.29,2.29,0,0,0-1.79-.31c-1.1,2.3-2.05,4.67-3,7l.7.39L399,273a2.72,2.72,0,0,1,.39.24c2.13,2.79.21,5.27-.44,8-1.12,4.66.26,9.24,1,13.85.77,5,1.11,10.11,1.93,15.12.42,2.59.19,5.15,1.86,7.79,1.55,2.44,3,6.14.18,9.33-.28.31.09,1.2.17,2l-4.05,1c-.25-2-.38-3.48-.64-5-.78-4.37-1.63-8.73-2.4-13.11a21.09,21.09,0,0,0-.58-3.39c-1,1-.45,3.24-3.33,2.51,4.54-5.92,1.9-12.24,1.89-18.4l-.64-.12c-1.77,6.73-3.53,13.46-5.31,20.28l2.72.32c-.82,1.13-1.47,2-2.19,3l1.51,1,1.18-2.33.12-2.59c.53.15,1.35.16,1.52.49a2.88,2.88,0,0,1,.28,2.11c-.89,2.16-2.14,4.17-3,6.35A52.14,52.14,0,0,1,382.36,336a137.76,137.76,0,0,1-10.61,11.14c-.73.71-2.3.55-3.47.8l-.18-.77c2-2.23,3.95-4.45,6.12-6.89,1.85.54,2.25-1.71,3.09-2.94s1.59-2.73,3.81-2.8c-1.93-1.13-1.93-1.13,1.21-3.19l-6.59-2.43c-.77,3.07-1.59,6.34-2.42,9.68L370.13,337c.44-.75.9-1.54,1.37-2.36-3.13-1.3-2.58,1.78-3.4,2.85a10.56,10.56,0,0,1-6.41,4.39,19.87,19.87,0,0,0-4.12,1.91l.39.7,1.8-.49.39.57c-2.12,3.35-6.31,4.14-9.42,6.9h2.56c-.51,1.15-.69,2.31-1.37,2.85-.41.33-1.58-.31-2.44-1.13l-1.15.89c-.14,2.25-.24,4-.33,5.46a8,8,0,0,0-1.91,1.52c-1.11,1.64-2.15,1.54-3.69.5a32.94,32.94,0,0,0-4.71-2.26c0,.35,0,.69.05,1-1.83,1.42-3.58,3-5.52,4.21s-4.05,2.17-6.55,3.48l2.33,1.26c-.62.89-1.23,1.76-2.18,3.1-.25-1.18-.37-1.75-.58-2.71a72.2,72.2,0,0,0-7.87.84,9.12,9.12,0,0,0-4.36,2.24,5.2,5.2,0,0,1-6,1.36c-2.19,3.83-5.81,1.47-8.9,2.72-.27.5-.81,1.46-1.35,2.43-1.76-3.59-1.76-3.53-4-2-.39.26-1.39-.35-2.66-.72L271.68,379v-.21l-4.83.41,2-1.78-5-.3,1.84,2.14c-2.1,1.89-3.52,1-4.51-2.51L258,376.3l-.51-.85L259,375l-.08-.56-2.73-.43c-.21-1.94-1.93-1.64-3.07-2.27l-.1,1.62-6.16-5.62-.79,1.2c-1.37-.94-2.66-1.75-3.85-2.69-.4-.31-.41-1.06-.78-1.45-.86-.91-1.82-2.41-2.77-2.44-2.17-.06-1.92-.86-1.07-2.45-2.57,1.13-3.11-1.12-4.06-2.27s-2.55-2.06-3.08-4c-.34-1.23-2.62-1.92-4.07-2.87l1.08-.91c-3.19-3.82-6.39-7.47-9.35-11.29a30.17,30.17,0,0,1-2.89-5.38c-1-2-1.83-4.13-2.78-6.18-1.9-4.07-3.82-8.13-5.73-12.19-.62-1.31-1-2.6-3-2.85-.76-.1-1.39-2-1.87-3.11-1.14-2.68-2-5.47-3.24-8.1-1.86-4-4.23-7.77-5.8-11.86-.9-2.36-.78-5.16-.85-7.77,0-.71.92-1.46,1.42-2.19.49.71,1.26,1.36,1.42,2.14a41,41,0,0,1,.63,5.65c.25,4.47,3.4,7.54,5.29,11.22l4,7.84c.07.14.07.37.18.45,5.64,4.22,5.89,11.36,9.13,16.89,2.42,4.14,4.17,8.68,6.76,12.7a23.06,23.06,0,0,0,9.16,8.13,16.47,16.47,0,0,1,4.19,3.61c2.42,2.59,5.63,3.46,8.51,1.66a61.77,61.77,0,0,0,6.17-5l.09,1.86,5.09-4.59.63.34-.21,3.4.53.15c.2-.66.39-1.32.6-2l1.82-.63,4.1,2.26c.79-2.26.79-2.26,1.9-1.86a17.52,17.52,0,0,1,3.17-.66,9.37,9.37,0,0,1,2.49.6c.6-1.22,1.28-2.61,2-4.06l1.88,2.52,1.43-3,3.44,1.82c.48-.44,1.07-1.34,1.45-1.26A4.6,4.6,0,0,1,281,340.2c.2-1.47.48-3.55.76-5.63l.86-.27c.66,1.53,1.69,3,1.9,4.61.33,2.46.67,2.94,3.1,2.43a11.25,11.25,0,0,1,1.95,0c-1.41-2.73.69-4.08,2.25-5.84.36.66.69,1.28,1.17,2.18.32-.81.55-1.41.78-2l.55-.15c.28,1.07.55,2.14.89,3.43,3.62-.36,1.06,2.95,2.11,4.56l1.51-1.19c.44,1.1.8,2,1.22,3.09,1.57-.61,3.36-1.21,5-2,.71-.35,1.19-1.17,1.91-1.94l4.87-1.58,2.43,2.74,2.23-4.36,2.77,1.62,1.54-1.71-.92-1.66.7-.58c.72.8,1.79,1.49,2.09,2.42.63,2,1.61,3.16,4.3,2.59l-6.49,6.87.54.56,1.55-1c.13.6.23,1,.33,1.46l1.75-.94-.47-.21L325,346l1.77,2.08c0-.92.08-1.91.11-2.51,4-1.52,5.38-5.27,7.78-8.64.54,1.48.89,2.45,1.29,3.53.61-.67,1.62-1.26,1.7-2,.17-1.45,1.09-1.15,2-1.53a14.69,14.69,0,0,0,4.72-3q6.92-7,13.5-14.39c1.92-2.13,3.43-4.63,5.23-6.88s3.56-4.08,5.29-6.17c1.58-1.9,3-4,4.63-5.82,2.74-3.06,6-5.76,8.33-9.08,1.91-2.68,4.75-5.08,4.66-8.93,0-.62.65-1.24.92-1.9,1-2.27,1.9-4.54,2.81-6.83.64-1.62,1.14-3.3,1.83-4.91a14.64,14.64,0,0,1,1.37-2.2c.16-1.52,0-3,.5-4.1,1.07-2.35-.45-3.45-1.78-4.74-.28-.28-.55-.58-1.05-1.11,2.35-1.84,2.7,1.92,4.64,1.16.55-1.29,1.91-2.69-.49-4.18-.5-.31-.31-1.72-.49-3l1.86,1.13.61-1.61-7.67-6.84c2.85,0,3.78-1.08,3.76-3.05,0-.25.14-.61,0-.72-2.32-2.16-.71-4.32-.1-6.52a6.3,6.3,0,0,0-.05-2.16c-.22-2.77,1.19-5,2.57-7.13.17-.26,1.68.1,2.37.51s1.77,1.15.12,1.9a7.23,7.23,0,0,1,.4,1.29c.05,2.62,0,5.26.08,7.88.07,1.49.59,3,.68,4.46.07,1.18-.72,2.82-.18,3.46.69.83,2.36.78,3.55,1.26,1.64.66,2,1.87,1.52,3.58-.69,2.61-1,5.31-1.69,7.92-1,3.78.86,6.76,2.69,9.68a2.6,2.6,0,0,0,2.48.27,76.69,76.69,0,0,0,7.63-5.4,4.73,4.73,0,0,0,1.5-3c.33-3.41,1.91-6.21,3.66-9,2-3.26,2.71-6.91,3.08-10.74a83.9,83.9,0,0,1,2.19-11c.6-2.49,1.54-4.9,2.23-7.38a26,26,0,0,0,.14-13.61c-1.43-5.7-2.06-11.59-3.28-17.35-.34-1.64-1.66-4.47-2.3-4.41a12.91,12.91,0,0,0-6.22,2.42c-3.66,2.76-5.35,6.72-5.7,11.31-.12,1.58-1,3-2.78,2.88-2-.15-2-1.9-1.95-3.39s.26-2.95.27-4.43a6,6,0,0,0-.53-1.76l-.91,0c-1.8,5.8-3.7,11.58-5.33,17.43-.44,1.58-.06,3.39-.06,4.55,1.92-.59,3.62-1.58,5.22-1.44.95.08,2.23,1.83,2.51,3,.89,3.79,2.6,7.5,1.53,11.6-.12.45,1.08,1.25,2,2.22.3-2.16,0-3.95.82-4.85s2.53-.64,4.28-1c.25-4.51,1.31-9.55.12-14.62l-6.42,2.6c-2.81-4.57,1-6.87,5-7.71s6.62,1.93,6.64,6.45,0,8.88-.17,13.31a87.89,87.89,0,0,1-1.06,10.76,5,5,0,0,1-2.39,3.4c-.75.31-2.36-1.07-3.36-2-1.25-1.1-2.74-1-3.48.59A6.59,6.59,0,0,1,402.5,239c-2-.6-2.44-2.39-1.11-4.85a19,19,0,0,0,1.6-13.35c-.45-2.15-2.15-4-3.29-6.05l-.9.3c-.37,2.43-.75,4.87-1.2,7.82-.47,0-1.32,0-2.16,0-1.46-.05-1.91-.81-1.34-2.13.64-1.5,1.33-3,1.92-4.3-.38-.59-1.07-1.18-1-1.67.26-2.3.32-5.12-1.13-6.37-1.8-1.56-1.54-3.2-1.84-4.9-.75-4.2-1.23-8.45-2.14-12.61-.63-2.89-1.27-2.69-3.91-1.7a42.14,42.14,0,0,1-9,2,61.6,61.6,0,0,1-8.38.47c-2,0-2.53.92-2.56,2.73-.07,3.69.16,7.47-.55,11-.91,4.61-2.59,9.08-4,13.6-.54,1.71-1.28,3.37-1.95,5-2.83,7.12-8.59,9.57-15.7,9.69-8,.14-15.95.5-23.89,0-4.15-.25-8.22-2-12.33-3.13l-1.79-.46c.42,2.79,1.22,5.49,1.12,8.16-.19,5-1.89,9.27-7,11.41a33.06,33.06,0,0,0-5.16,2.81c-.5.33-.61,1.27-1,2.23a22.43,22.43,0,0,1,3.36,0,2.23,2.23,0,0,1,1.49,1c1.76,4,5.41,6.26,8.31,9.17,2.22,2.24,2.68,1.92,3.56-1.31l3.62,3.32.3-1.7a27,27,0,0,0,2.8,2.57c1.46,1,3,2.55,4.58,2.55,2.1,0,2.81,1.24,3.93,2.34.4.39,1.06.51,2.27.44l1.62,9.27c.56,3.21-1.06,5.62-3.15,7.66-.56.54-2,.11-3,.26a14.87,14.87,0,0,1-8.56-.66c-2.26-.7-4.07.3-5.42,2-3.21,4.15-7.82,6.48-12.44,8-6.52,2.21-13.42,3.27-20.16,4.82l-2.45.55c.24,1.63,1,3.32.47,4.38-.36.75-2.48.64-3.81.9-.1-1.36-.2-2.72-.35-4.67-1.35.47-2.67,1.05-4.05,1.38a29.9,29.9,0,0,1-3.79.43c0-.43-.1-1,.12-1.27a20.28,20.28,0,0,1,2.08-2.05c-11.25-2.39-18.95-9.92-27.69-15.69a8.44,8.44,0,0,0-8.17-.82c-.36.15-.61.65-.83,1-.35.61-.63,1.25-.94,1.88-.91-.55-2.18-.89-2.64-1.69-.57-1-.49-2.4-.68-3.62a17.82,17.82,0,0,1-.38-2.68c0-1.34.15-2.68.24-4.1l-2,1.21,3.38-5.94-.44-.18,6.86-7.15.55,2.24,3.81-4c.67,1.11,1.4,2.06,3,.64,1-.93,2.42-1.75,4.13-.82.38.2,1.93-.66,1.93-1,0-2.65,2.82-2.24,3.87-3.7a12.35,12.35,0,0,1,2,1c2.76-3.49,7.33-5,11.14-7.67l-.19-.8c-2.73-.1-5.46-.39-8.18-.25-3.83.2-6.25-1.94-7.91-4.83-3.29-5.69-4.66-11.75-1.77-18.49-3,.22-5.57.46-8.18.59a97.17,97.17,0,0,1-27-2.17c-7.74-1.81-14.69-5.74-17.24-13.9-1.55-4.93-1.63-10.33-2.29-15.53-.29-2.33-.36-4.68-.57-7.57l-2.7,3.37c-.5-.66-.85-1.2-1.27-1.67-1.79-2-4.46-1.73-5.37.73a13.66,13.66,0,0,0-.46,5.16c.18,3.59.67,7.17.86,10.77.56,10.69.87,21.41,1.68,32.08.22,2.83,1.7,5.64,3,8.29,1.64,3.44,1.46,7,1.58,10.64a16.4,16.4,0,0,1-.22,3.21c-.81,4.64,1,7.77,5.23,9.73.75.34,1.09,1.58,1.62,2.4-1,.12-2.14.59-3,.29-5.36-1.85-8.3-7-7.17-13.33a18,18,0,0,0-1.4-11.77c-3.27-6.19-3.18-12.85-3.6-19.46-.64-9.94-1.06-19.9-1.58-29.85-.12-2.29-.75-4.67-.34-6.86,1.19-6.47,4.62-7.88,12.52-6.14-.91-1.05-1.38-1.63-1.9-2.16-1.42-1.46-3-2.8-4.26-4.36-.89-1.06-1.54-2.32-.38-3.79a2,2,0,0,0-.17-1.92c-1.84-1.09-1.43-2.79-1.47-4.41-.21-7.91-.6-15.82-.62-23.74,0-12.57-.85-25.31,6-36.75,1.85-3.09,3.73-6.17,5.82-9.11.52-.74,1.86-.9,3.06-1-.77,2.91-.47,6-3.09,8.06a2.55,2.55,0,0,0-.67.72c-3.5,6.48-6.55,13.09-5.56,20.82.3-1.25.59-2.51.92-3.76,1.32-4.87,2.67-9.74,6-13.71a13.24,13.24,0,0,1,1.35-1.45c1.06-1,2.27-2.11,3.63-.75s.28,2.65-.84,3.75c-3.47,3.38-4.8,7.85-6,12.33a109.57,109.57,0,0,0-4,27.91,6.29,6.29,0,0,1-1.36,3.16c-.84,1.19-.9,9.48.12,10.48a2.33,2.33,0,0,0,4-1.14c1-4.42,1.85-8.88,2.53-13.35,1.29-8.47,2.07-17,3.7-25.42,1.68-8.57,4-17,6.28-25.47,2.4-9,6.17-17.37,14.21-22.86A92.47,92.47,0,0,1,226.26,74a4.76,4.76,0,0,1,2.66-.12c13.14,2,26.38,1.65,39.59,1.35,4.21-.1,8.56-1.23,11.76-5,.94-1.11,3.51-1.26,5.28-1.13,4.18.31,8.31,1.25,12.48,1.57,7.23.54,14.47.95,21.72,1.14,5.59.15,11.21-.34,16.8-.14A137.37,137.37,0,0,1,355,73.22c4.23.74,8.23,2.84,12.31,4.36.35.13.61.55.86.87,2.19,2.79,4.29,5.66,6.58,8.37,4.45,5.27,4.6,10.91,2.87,17.4a96.58,96.58,0,0,0-3.42,24.36c-.05,6.85,2.13,13,3.43,19.54,1.18,5.86,4.21,10.71,6.25,16.06,2.12,5.58,5.34,10.77,8.3,16,2.07,3.64,6,4.38,9.67,2.26a23.13,23.13,0,0,1,4.66-2.22c7.36-2.25,13-10.37,11.78-17.23a2.21,2.21,0,0,1,.05-1c2.57-8.54.23-17.05-.11-25.57-.08-1.81.08-3.63,0-5.44-.14-2.48-.42-4.94-.63-7.42l-.83.06c-.16,3.16-.36,6.33-.48,9.5q-.54,14-1,28c0,1.48-.16,3.07-2.08,3s-2.05-1.65-2-3.11q.71-18.47,1.46-36.93c.08-2.13.74-3.82,3.86-3.13-.37-2.64-.55-4.93-1-7.16a111.18,111.18,0,0,0-2.87-11.26,27.16,27.16,0,0,0-3.73-7.67c-2.49-3.35-5.53-6.28-8.33-9.39l-3.83-5.71c-4.15-6-8.09-12.08-12.5-17.84-3.27-4.26-7.26-8-10.71-12.11-1.46-1.74-2.2-4.06-3.54-5.92a33.93,33.93,0,0,0-9-8.57c-1.89-1.25-3.39-3.1-5.28-4.35a24.3,24.3,0,0,0-6.09-3c-2.88-.9-5.9-1.32-8.87-1.94l-.18.79a20.53,20.53,0,0,0,1.9.9C352.83,31.6,361,38.41,368.12,46.67c1,1.19,1.58,2.51.17,3.69s-2.58.25-3.69-.76c-4.49-4.12-8.66-8.7-13.6-12.2-8.57-6.07-18.57-8.81-28.84-10.54ZM230.31,163.63c2.14.27,3.84.58,5.55.69,5.82.38,11.64.66,17.46,1,2.62.17,5.23.55,7.85.68a2.3,2.3,0,0,1,2.47,2.31c-.16,3,1.79,4.62,3.39,6.57a5.38,5.38,0,0,1,1.09,1.91c.44,1.6,1.46,1.95,3,1.92,3.44-.08,6.9-.17,10.33,0a54.86,54.86,0,0,1,6.75,1.23,12,12,0,0,1,8.63-9.75c-.21-.73-.43-1.46-.67-2.3l28.38.83.19-1a13.18,13.18,0,0,0-2.89-.73c-8.74-.28-17.49-.47-26.23-.73-1.44,0-2.88-.26-4.24-.39a15.32,15.32,0,0,0,0-2.07c-.53-3.18.79-5,4-5.17,2.45-.11,4.92.17,7.38.1,6.12-.2,12.24-.59,18.37-.72a48.44,48.44,0,0,0,11.5-1.32,10.62,10.62,0,0,1,1.84.11c1.11,0,2.21-.19,3.32-.29.74-.34,1.52,0,2.24-.08a22,22,0,0,1,6.27.67,52.44,52.44,0,0,0,5.23,2.41,36.45,36.45,0,0,0,5.33,1.43,17.91,17.91,0,0,0,3.24,0c.67,1.18,3.49,1.52,3.24,4.38l-2.44-1.29a16.69,16.69,0,0,1,1.49,3.07c.49,2.21.79,4.46,1.15,6.69a14.37,14.37,0,0,0,.43,2.57c.58,1.55,1.38,3,2,4.54.45,1.15.73,2.37,1.06,3.5l-1,.77c1.62.11,3.49,1.29,4.32-.58L387.33,183a23.71,23.71,0,0,1-1.56-2.77c-2.31-5.5-4.62-11-6.8-16.54-2.92-7.42-6-14.78-7.61-22.66a54.47,54.47,0,0,1-.43-18.32,123.2,123.2,0,0,0,1.5-13.63,106.89,106.89,0,0,0-.93-14.28c-.15-1.35-1.36-2.57-2-3.9a9.23,9.23,0,0,1-1.19-3.36,2.47,2.47,0,0,0-1.78-2.6,4.4,4.4,0,0,1-2.3-1.48,5,5,0,0,0-4.15-3c-2.31-.24-4.6-.64-6.91-.92-5.29-.66-10.57-1.61-15.88-1.85-10.45-.46-20.91-.71-31.36-.65-6.3,0-12.52-.49-18.77-.93a23.49,23.49,0,0,0-7.28.67c-2.53.63-4.83,2.46-7.35,2.74-5.95.64-12,.85-18,.92-8,.09-16.08-.3-24.11-.11a21.1,21.1,0,0,0-7.7,2.06c-8,3.5-12,10.46-14.41,18.22-2.68,8.77-4.71,17.76-6.57,26.75-2.4,11.6-4.3,23.3-6.56,34.93-.32,1.64-1.12,3.76-2.39,4.53-2.62,1.59-2.83,3.32-1.93,5.15,2.6-1.75,5.26-3.51,7.86-5.34a1.77,1.77,0,0,0,.76-1.34c-.74-3.58,1.69-5.2,4.09-6.89,4.36-3.06,9.51-2.61,14.33-2.82,12-.53,24-.43,35.91,1.55,5.42.89,7.66,1.13,8.44,7.41-6.19-.39-12.33-.74-18.47-1.2-2.84-.21-5.67-.79-8.51-.88C233.8,162.38,231.92,161.56,230.31,163.63Zm7.47,6.52-.11-.66c-.73.4-1.48,1.15-2.19,1.13-2.57-.1-5.13-.6-7.7-.71-4.67-.2-9.36,0-14-.37-5.07-.39-10.09-.48-14.89,1.27a7.33,7.33,0,0,0-3.89,3.31,19.1,19.1,0,0,0-2,7.75c0,7.56.3,15.14,1,22.67a30.28,30.28,0,0,0,3,10.5c2.43,4.87,7.21,7.19,12.31,8.23a102.33,102.33,0,0,0,15.11,1.91c7.64.39,15.35.35,22.3-3.57a16,16,0,0,0,7.58-8.73,86.32,86.32,0,0,1,4.24-10.13c.86-1.72,1.6-3-.38-3.95a19.86,19.86,0,0,1,1.36-3.87,16,16,0,0,1,2.67-2.68c.65-2.21,1.3-4.82,2.19-7.35,1.57-4.46.88-6.62-2.91-9.5-5-3.76-11-3.49-16.6-4.61A64.35,64.35,0,0,0,237.78,170.15ZM324,172.68c-8.1,1-16.42,1.9-24.72,3-5.34.69-9.68,6.79-8.57,12.09a98.07,98.07,0,0,0,2.75,9.83c1.93,5.94,3.95,11.84,6,17.73,1.49,4.28,3.74,8,8.07,10a50.87,50.87,0,0,0,22.66,4.9c5.42,0,10.83-.6,16.23-1.08,3.55-.32,7-1.52,8.44-5a70.66,70.66,0,0,0,4.89-15.31c1.37-7.71,2.63-15.32,1.78-23.17-.28-2.58-.28-5.44-2.64-6.87-2.9-1.75-6.09-3.64-9.33-4.06C341.24,173.64,332.78,173.33,324,172.68Zm-68,73.24c.07-1.74-.72-2.44-2.31-2.69-2.05-.33-2.65-2.29-1.2-3.81a5.22,5.22,0,0,1,1.87-1.12c4.58-1.74,8.42.24,11.94,2.78,2,1.44,3.47,2.18,5.38-.05.75-.87,2.12-1.22,3.18-1.84,6.46-3.71,12.85-2.58,19.14.37,2.47,1.16,2.39,3.15,0,4.6l-1.67,1c.7.36,1.17.81,1.53.73,2.48-.49,5.28-.64,6.57-3.29a9.53,9.53,0,0,0,.44-8.29q-2.4-5.42-4.85-10.81c-.53-1.17-1.28-2.26-1.7-3.47-.77-2.22-1.14-4.59-2.08-6.73-1.94-4.41-4.19-8.69-6.2-13.08a21,21,0,0,1-.95-3.83l.52-.13,2.46,2.74c-.24-5.06-.67-5.78-2.55-5.33-.17-2.62-.27-5.3-.6-7.94a2.34,2.34,0,0,0-1.46-1.61,54.61,54.61,0,0,0-8.93-1.5c-5.45-.24-5.5-.09-6.85,5.24a46.55,46.55,0,0,0-.72,4.79c-.21.16-1,.45-1.16.93-.5,1.87-.46,3.92-1.2,5.66-1.74,4.1-3.83,8.06-5.75,12.09-.59,1.25-1,2.6-1.61,3.82-.91,1.72-2,3.33-3,5-1.71,3.13-6.26,4.49-5.61,9.08,0,.2-.19.45-.32.65-2.78,4.34-2.24,8.57-.14,13.07C250,246.72,251.49,248.17,256.09,245.92Zm-4.87,22.52c.54,2.79-2.53,2.14-3.57,2-1.51-.26-2.78-1.92-4.34-3.14a20.61,20.61,0,0,0-1.73,2.77c-.72,1.67-1.23,3.42-1.87,5.12-.2.55-.88,1.43-.78,1.52.8.7,1.74,1.76,2.62,1.74,2.72-.05,5.44-.68,8.17-.81,5.61-.27,11.54-1.55,16.77-.21,6,1.53,11.42.11,16.88-.78,3.6-.58,8.14,1.8,11.88.22,2.51-1.06,5.26-.61,8.43-.11a6.45,6.45,0,0,0,1.93.23c.4-.06.72-.6,1.08-.92-2.73,1.51-2-1.58-3.12-2.17l-1.33.94-1.17-1.32L299.62,275l-.47-.31c.1-.59.21-1.18.32-1.78l-1,.86-2.9-2.35,1-.78-4.55-2.09c-1.57-.7-2-3.73-4.68-2.27-.16.09-.88-.36-.94-.65-.33-1.43-1.2-1.54-2.41-1.25a1,1,0,0,1-.9-.49,1.41,1.41,0,0,1,.32-1.18c1.25-1.12.54-1.79-.53-2.22-1.9-.77-3.85-1.41-5.91-2.15.4-1.06.9-1.72.78-2.24-.21-.92-.72-2.45-1.26-2.52-3.45-.45-6.94-.57-10.54-.81.42,1.53-.14,3.59,2.39,3.83-.2.72-.77,1.74-.52,2,1.06,1.16,1.37,1.91-.37,2.67a17.84,17.84,0,0,0-2.7,1.76l-.42-.56,1.21-1.74-1.47-.67C261.74,266.06,256.61,267.14,251.22,268.44Zm-7,19.26a7.44,7.44,0,0,0,.85,1.47c3.89,3.54,8,6.77,13,8.59,5.74,2.08,11.62,2.21,17.7,1.59,10.27-1,20.24-2.55,28.68-10.78C278.78,291.7,267.09,291.14,244.23,287.7Zm27.59-39.8c2.94,0,5.79,0,8.64,0,2.12,0,4.26.27,6.37.11a17,17,0,0,0,3.81-1.16l-.19-.82c-2.5-.26-5.11-.14-7.47-.87-2.52-.78-4.5-1-7.17.08C274.15,246,272.75,246.39,271.82,247.9Zm3.37,35.8a8.35,8.35,0,0,0,2.2.65m12.58-.08c.85,0,1.67-.88,2.5-1.35l-.38-.76M206.8,163.73l.11.65,17.36-1.17c-2.84-.41-6-1.25-9.08-1.19C212.38,162.08,209.59,163.12,206.8,163.73Zm60.29,83.75c-2.47-4.32-5.07.08-7.39-.85-.19-.07-.69.64-1.05,1l.33.65Zm113.47,79.88c.7-1.94,1.35-3.72,2-5.55l-2.6.84-1.13,4.23Z" transform="translate(-25.83 -16.11)"></path><path d="M227.18,368.53c-3,.93-5.63,1.79-8.31,2.59-8.62,2.58-17.24,5.19-25.89,7.69-12.74,3.68-24.5,9.55-35.63,16.55-12.18,7.65-25.06,12.93-39.4,14.53-3.48.39-6.89,1.21-9.44,3.87-1.18,1.24-2,2.89-3.22,4a83.62,83.62,0,0,1-6.84,5.14c-5.2,3.67-10.55,7.13-15.63,11C73.19,441.1,63.55,448.37,54.23,456a71.09,71.09,0,0,0-10,10.88c-1.2,1.5-1.56,3.77-2,5.75-1.73,7.57-3.54,15.13-4.94,22.76s-2.37,15.33-3.53,23c-.17,1.14-.31,2.3-.58,3.42A3.7,3.7,0,0,1,29,524.93a3.67,3.67,0,0,1-3.13-4.33c1.59-11.11,2.16-22.4,5.69-33.18.56-1.7.81-3.16-.64-4.75-.62-.69-.6-2.43-.23-3.47,2-5.74,4.25-11.4,6.45-17.08a5.37,5.37,0,0,1,1.23-1.83c9.73-9.42,20.4-17.72,31.29-25.72,8.6-6.31,17.27-12.5,25.85-18.83a30,30,0,0,0,5.31-4.81,23.27,23.27,0,0,1,16-8.43c13.36-1.39,25.29-6.39,36.61-13.5a166.11,166.11,0,0,1,49.85-20.89c7.6-1.83,15-4.63,22.39-7.2,4.83-1.68,9.41,1.37,9.21,6.4-.07,1.73-.12,3.47,0,5.2a80.75,80.75,0,0,1-2.49,24.82c-1.9,6.94-.82,13.63,1.9,20.1,1.19,2.83,3.82,3.89,6.71,3.79,5-.17,9.9-.59,14.85-.87,8.49-.48,17-1,25.48-1.39a56.39,56.39,0,0,0,18.55-4c9-3.64,18.43-6.48,27.2-10.64,14.46-6.85,28-15.17,39.09-27.11,3.63-3.91,8.23-6.91,12.08-10.64a67.49,67.49,0,0,0,8-9.34c5.43-7.57,10.58-15.35,15.89-23a3.65,3.65,0,0,1,5-1.31,3.6,3.6,0,0,1,1.21,5.17c-1.06,1.86-2.37,3.57-3.6,5.33-3.62,5.22-7.47,10.29-10.83,15.67a60.75,60.75,0,0,1-11.88,14.18c-7.32,6.3-14.15,13.19-21.68,19.24-14.23,11.42-30.24,19.76-47.46,25.8-3.9,1.36-7.86,2.56-11.68,4.11-7.41,3-15.18,3.83-23,4.27-10.06.57-20.12,1.27-30.18,1.8a52.55,52.55,0,0,1-9.88-.11c-5.62-.78-9.37-4.09-11.35-9.48-3-8.07-3.7-16.22-1.36-24.58S227.68,377.48,227.18,368.53Z" transform="translate(-25.83 -16.11)"></path><path d="M576.84,438.05c-4.25.91-6.22-.13-6.46-4.14-.33-5.48-3.09-9.28-7.12-12.45a99.48,99.48,0,0,0-9.91-7.42c-12.64-7.57-23.56-17.29-34.36-27.16a57.31,57.31,0,0,1-6.63-7.68,52.49,52.49,0,0,0-24.58-18.05c-8.62-3.1-17.06-6.74-25.44-10.44a111.22,111.22,0,0,1-11.21-6.28c-5.76-3.37-11.48-6.81-17.22-10.22-3.9-2.33-7.77-4.7-11.7-7s-8.16-4.66-12.31-6.86c-2.11-1.12-3.12-2.82-2.43-4.77a3.46,3.46,0,0,1,4.82-2.15c3.69,1.62,7.27,3.51,10.79,5.47,6.27,3.49,12.48,7.09,18.68,10.7a78.88,78.88,0,0,1,8.84,5.46c7.68,6,16.41,9.75,25.4,13.21,7.86,3,15.54,6.5,23.26,9.85,6.95,3,12.23,8.26,16.82,14,11,13.78,24.58,24.64,39.18,34.27a111.47,111.47,0,0,1,18.94,15.46c6.16,6.36,9.88,13.88,13.22,21.85,3.45,8.22,7.58,16.15,11,24.38,2.91,7,5.17,14.29,7.81,21.41a6.81,6.81,0,0,0,2,2.76,4.13,4.13,0,0,1,1.53,4.78,66.82,66.82,0,0,0-2.17,10.5c-.9,10.61-1.5,21.25-2.23,31.88a14.53,14.53,0,0,1-.39,2.45,3.7,3.7,0,0,1-4.14,3.08,3.65,3.65,0,0,1-3.13-4.1c.5-6.42,1.15-12.83,1.6-19.26.52-7.41,1.45-14.86,1.12-22.25-.21-4.91-1.85-9.92-3.68-14.57-4-10.2-8.58-20.2-12.88-30.29-1.75-4.1-3.4-8.25-5.12-12.36C578.2,440.78,577.52,439.47,576.84,438.05Z" transform="translate(-25.83 -16.11)"></path><path d="M457.28,365.25c-.51.58-1.23,2.05-2.38,2.61C431.85,379,410.54,393,389,406.74c-18.22,11.6-31.5,27.17-41.29,46.1-4.37,8.44-8.82,16.83-13.12,25.29-1.58,3.09-2.88,6.31-4.27,9.49-1.17,2.67-3,3.75-5.15,2.91s-2.83-2.92-1.73-5.65c1.34-3.29,2.72-6.57,4.34-9.73,5.31-10.36,10.48-20.8,16.19-30.95,9.4-16.7,21.55-30.86,37.82-41.53,19.91-13.05,39.88-25.94,60.95-37.06a99.38,99.38,0,0,1,9.4-4.43C454.76,360.13,457.23,361.84,457.28,365.25Z" transform="translate(-25.83 -16.11)"></path><path d="M169.34,476.43c-2.59,5.88-5.37,11.68-7.72,17.66-3.1,7.91-5.89,16-8.77,23.95-.94,2.61-2.63,3.79-4.76,3.14s-3.24-2.58-2.3-5.19c3.64-10.1,7-20.34,11.3-30.13,6-13.58,12.84-26.8,19.29-40.19,1.29-2.68,2.31-5.49,3.68-8.12,1.9-3.64,4.06-7.15,6-10.76,1.06-2,1.86-4.05,2.91-6,1.86-3.49,3.7-7,5.81-10.35a3.54,3.54,0,0,1,5.2-1.05,3.63,3.63,0,0,1,.89,5.08c-7.41,11.64-11.31,24.73-15.53,37.68-5,15.39-9.9,30.81-14.86,46.22a15.28,15.28,0,0,1-1,2.54,3.64,3.64,0,0,1-6.82-2.55c.79-2.69,1.81-5.31,2.71-8,1.53-4.54,3-9.07,4.55-13.61Z" transform="translate(-25.83 -16.11)"></path><path d="M465.19,395.31c-.56.6-1.36,2.07-2.59,2.68-21,10.42-39.7,24.32-57.94,38.88-13.1,10.45-23.4,23.27-32.19,37.41a14.72,14.72,0,0,1-1.85,2.62c-1.32,1.33-3.15,1.72-4.45.44a6.91,6.91,0,0,1-1.49-4c-.09-.82.76-1.77,1.28-2.61A156.39,156.39,0,0,1,402.55,429c16.54-13,33.52-25.28,52.06-35.29a38,38,0,0,1,5.63-2.56C462.75,390.24,465.11,391.92,465.19,395.31Z" transform="translate(-25.83 -16.11)"></path><path d="M513.2,427.53a11.92,11.92,0,0,1-2.93,2.6c-14.27,6.71-27.83,14.68-39.78,24.94-16.82,14.44-29.81,31.74-36.54,53.23-.77,2.47-2.54,3.63-4.58,3.09s-3.16-2.52-2.46-5.12c3.13-11.56,8.94-21.78,15.68-31.57,12.71-18.43,29.59-32.09,48.86-43,4.67-2.65,9.46-5.08,14.22-7.55a12.33,12.33,0,0,1,3.25-1.19C511.19,422.48,513.28,424.31,513.2,427.53Z" transform="translate(-25.83 -16.11)"></path><path d="M485.56,409.71c-.53.56-1.31,2-2.49,2.52-28.67,12.89-45.69,36.57-59,63.68-2.53,5.17-4.33,10.7-6.45,16.07-.25.62-.42,1.26-.69,1.86-1,2.16-2.88,3.13-4.79,2.31a3.44,3.44,0,0,1-2.13-4.65c1.76-5,3.44-10,5.55-14.84,10-23,24.07-43,43.66-59a82.68,82.68,0,0,1,20.44-12C482.89,404.36,485.67,405.91,485.56,409.71Z" transform="translate(-25.83 -16.11)"></path><path d="M106.14,483.6c-1-.84-2.45-1.46-2.82-2.47a5,5,0,0,1,.36-3.86,16.71,16.71,0,0,1,3.7-4c12.38-10.47,21.73-23.43,30.62-36.82,3.09-4.66,6.47-9.16,9.88-13.6a16,16,0,0,1,4.11-3.52,3.25,3.25,0,0,1,4.61,1,3.19,3.19,0,0,1-.17,4.53c-9.12,8.32-14.33,19.51-21.5,29.26-7.59,10.33-16.56,19.27-25.88,27.92A14.62,14.62,0,0,1,106.14,483.6Z" transform="translate(-25.83 -16.11)"></path><path d="M571,446.81c0,2.53-2.09,4-5,3.56-7.27-1.05-14.55-2-21.83-3.06-.4-.05-.82-.05-1.23-.12-12-1.88-22.49,1.81-31.85,9.19a9.78,9.78,0,0,0-2.13,2.64c-1.11,1.86-2.56,2.82-4.72,2.06a3.4,3.4,0,0,1-2-4.86,15.92,15.92,0,0,1,4.23-5.57,103.18,103.18,0,0,1,10.68-6.73,33.46,33.46,0,0,1,17.79-4.44,174.25,174.25,0,0,1,32.45,3.63C569.76,443.61,571,444.92,571,446.81Z" transform="translate(-25.83 -16.11)"></path><path d="M77.84,478.79c-1.14-6.8,3.13-12.36,5.42-18.4,2.82-7.47,6.35-14.68,9.8-21.9a25.81,25.81,0,0,1,4.43-6.18c1.41-1.52,3.34-1.38,4.88.09a3.32,3.32,0,0,1,.43,4.71c-5.24,7-8.15,15.23-11.61,23.15a76.23,76.23,0,0,0-6,19.82c-.42,2.94-2,4.43-4.22,4.19S77.56,482.27,77.84,478.79Z" transform="translate(-25.83 -16.11)"></path><path d="M189.38,237.58c3,.25,2.94,2.28,2.92,4.5-.05,5.76.13,11.52,0,17.27,0,.86-.87,2.34-1.46,2.4-.87.09-2.45-.64-2.67-1.35a26.27,26.27,0,0,1-1-6.55c-.15-3.87,0-7.75,0-11.95-4.4-2.24-5.51-6.57-5.29-11.51.12-2.55-.36-5.39.61-7.58,2.21-5,1.42-10.1,1.57-15.19,0-.5,0-1,0-1.49.06-1.66.35-3.41,2.4-3.39s2.2,1.76,2.18,3.44c0,4.3.45,8.65-.09,12.87C187.75,225.28,189.94,231.23,189.38,237.58Z" transform="translate(-25.83 -16.11)"></path><path d="M251,39.07c1.1.26,2.15.49,3.18.75,1.9.47,3.73,1.9,5.74,0,.4-.37,1.61-.08,2.37.16a75.53,75.53,0,0,1,7.24,2.52Q283,48.3,296.32,54.28a51.43,51.43,0,0,1,5.66,3c1.21.74,2,1.89,1.07,3.34s-2.12,1.08-3.47.47c-11-5-22.12-10-33.18-15-1.11-.5-2-.75-3,.43-.44.51-1.84.5-2.69.29-3.9-1-7.78-2-11.61-3.24a3.06,3.06,0,0,1-1.77-2c-.11-.61.69-1.61,1.35-2.06A6.23,6.23,0,0,1,251,39.07Z" transform="translate(-25.83 -16.11)"></path><path d="M384.28,138.75c1.26-10.32,2.47-20.64,3.82-30.95.22-1.7.45-4.19,3-3.66s1.18,2.71,1,4.32c-1.08,11.25-2.54,22.48-3,33.75-.25,5.92,2,11.63,5.36,16.74.49.75.15,2,.19,3.06-1.09-.17-2.49,0-3.21-.6a9.93,9.93,0,0,1-2.44-3.66C386.49,151.69,384.35,145.53,384.28,138.75Z" transform="translate(-25.83 -16.11)"></path><path d="M289.69,29c4,1,8.14,1.48,11.93,2.94,9.59,3.71,18.58,8.55,25.73,16.21.56.6,1.31,1.22,1.46,1.94a3.15,3.15,0,0,1-.45,2.59c-.53.47-1.76.28-2.65.16-.4,0-.77-.59-1.1-.95C317.76,44.2,308.89,39.64,299.55,36c-3.23-1.26-6.89-1.44-10.38-2-1.55-.26-3.17-.45-3.08-2.43C286.18,29.38,287.94,29.37,289.69,29Z" transform="translate(-25.83 -16.11)"></path><path d="M346.6,44.78a22,22,0,0,0-2.32-2.12A90,90,0,0,0,322.57,32c-4.37-1.5-8.7-3.1-13.05-4.66-1.42-.5-2.7-1.26-2.17-3,.58-1.9,2.18-1.78,3.68-1.29,3.76,1.24,7.49,2.56,11.22,3.84l-.09-.06c7.15,3.31,14.34,6.52,21.42,10a42.57,42.57,0,0,1,6.29,4.32c1.31,1,2.52,2.23,1.24,3.92s-2.62.78-3.91-.1a3.19,3.19,0,0,0-.69-.27Z" transform="translate(-25.83 -16.11)"></path><path d="M283.23,40.39c14.21-.26,24.74,7.08,34.22,16.53a7.58,7.58,0,0,1,2,2.77,4,4,0,0,1-.27,3.25c-1.1,1.24-2.32.38-3.36-.66-2.92-2.89-5.8-5.83-8.88-8.54-6.87-6-15.08-8.61-24.1-8.94-1.83-.07-4.11.24-4.35-2.5C278.37,40.62,279.77,40.09,283.23,40.39Z" transform="translate(-25.83 -16.11)"></path><path d="M273.72,61.86c-.86-.3-1.27-.4-1.63-.58-9.21-4.57-19.15-5.9-29.23-6.63-2.87-.21-5.75-.41-8.63-.65-1.52-.12-3.07-.72-2.67-2.44a3.54,3.54,0,0,1,2.73-2.06c12.5.8,25.07,1.3,36.85,6.33a14.74,14.74,0,0,1,3.69,1.94,2.94,2.94,0,0,1,.74,2.55C275.35,61,274.25,61.46,273.72,61.86Z" transform="translate(-25.83 -16.11)"></path><path d="M404.44,127.65q-.48,10.64-1,21.28a4,4,0,0,1-.3,1.93,2.8,2.8,0,0,1-1.83,1.26c-.61,0-1.36-.77-1.73-1.39a3.86,3.86,0,0,1-.15-1.94q.54-19.44,1.1-38.87a28.45,28.45,0,0,1,.24-3.46c.2-1.37.75-2.9,2.4-2.4.75.22,1.53,1.81,1.55,2.79.13,6.93.07,13.86.07,20.8Z" transform="translate(-25.83 -16.11)"></path><path d="M280.79,405.75c-5.82,0-10.17-2.88-14.11-6.51-.65-.59-.43-2.14-.61-3.24,1,.12,2.39-.14,3,.42,6.63,6.06,13.88,5.17,21.43,2.24,4.27-1.65,8.58-3.19,12.95-4.55.76-.23,1.88.68,2.84,1.06-.38.8-.56,2.05-1.18,2.35a143.64,143.64,0,0,1-13.77,6C288,404.74,284.32,405.05,280.79,405.75Z" transform="translate(-25.83 -16.11)"></path><path d="M282.56,392c-7.87-.16-13.38-2.35-18.84-4.61-.66-.27-.86-1.67-1.27-2.54.91-.35,1.93-1.17,2.71-1,2.89.73,5.67,1.9,8.55,2.68,5.06,1.37,10.07.57,15.06-.62,3.18-.76,6.37-1.47,9.6-2,.84-.14,2.39.26,2.57.79a3.26,3.26,0,0,1-.53,2.94,9.83,9.83,0,0,1-4.16,1.9C291.12,390.58,285.94,391.4,282.56,392Z" transform="translate(-25.83 -16.11)"></path><path d="M346.51,44.71l14.51,13c.49.44,1,.92,1.43,1.37,1.16,1.11,2.11,2.37.67,3.79s-2.72.47-3.89-.58l-10.31-9.23A47.5,47.5,0,0,1,344.36,49a4.41,4.41,0,0,1-1.11-3.34c.44-1.58,2-1.29,3.35-.84Z" transform="translate(-25.83 -16.11)"></path><path d="M352.45,65c-.79.88-1.3,1.87-2.05,2.13a2.55,2.55,0,0,1-2.3-.71c-2.6-6.18-8.57-8.11-13.7-11.09-.92-.54-2.11-.87-2.7-1.65a3.62,3.62,0,0,1-.67-2.94,2.82,2.82,0,0,1,2.65-.83c5.46,3,11.52,5.12,15.7,10A38.7,38.7,0,0,1,352.45,65Z" transform="translate(-25.83 -16.11)"></path><path d="M248,58.19c6,1.65,12,3.21,18,5,.76.24,1.12,1.83,1.66,2.79-1,.46-2.1,1.42-3,1.28C262.38,67,260.23,66,258,65.5c-3.43-.76-6.9-1.41-10.37-2C246,63.22,244,63.24,244.1,61s2-2.21,3.74-2.17Z" transform="translate(-25.83 -16.11)"></path><path d="M195.91,99.81c1.22-5.92,2.13-11.42,6-15.78,1.08-1.21,2.4-2.44,4-1.1s.62,2.74-.5,4c-2.8,3.17-3.62,7.16-4.52,11.12-.16.72-.13,1.64-.57,2.11-.65.69-1.7,1.52-2.47,1.42S196.45,100.34,195.91,99.81Z" transform="translate(-25.83 -16.11)"></path><path d="M396.71,79.8l3.83,5.71A16.75,16.75,0,0,1,402,89.15c.15,1-.4,2-.64,3-1-.41-2.27-.55-2.8-1.26Q393.43,84.1,388.68,77c-.53-.78-.18-2.15-.24-3.25,1.09.21,2.48.07,3.21.7A65.49,65.49,0,0,1,396.71,79.8Z" transform="translate(-25.83 -16.11)"></path><path d="M281.09,38.1c-4.22-.84-7.87-1.45-11.44-2.37-.73-.19-1.78-1.72-1.59-2.26.28-.84,1.59-2,2.31-1.91a95.34,95.34,0,0,1,11.09,2.19,2.81,2.81,0,0,1,1.48,2.37C282.79,37,281.61,37.59,281.09,38.1Z" transform="translate(-25.83 -16.11)"></path><path d="M370.43,53.24a8.08,8.08,0,0,1,1.89,1.5A94.72,94.72,0,0,1,378,62.8c.47.78-.07,2.16-.15,3.27-1.09-.17-2.67.06-3.2-.57a101.36,101.36,0,0,1-6.34-8.78C367.24,55.13,368.21,53.34,370.43,53.24Z" transform="translate(-25.83 -16.11)"></path><path d="M352.67,355.31l1.64-1.13c-.16-.41-.34-.89-.52-1.38l2.07.51,2.9-2.2.67,1-6.25,4Z" transform="translate(-25.83 -16.11)"></path></g><g id="eyes"><path d="M234.33,176.6c7.57.73,14.57,2.62,20.28,7.79a13.81,13.81,0,0,1,2.21,2.94c1.15,1.8.55,3.4-1,4.57-5.15,4-11,5.44-17.51,5.4-9.06-.06-17.71-2.13-26.27-4.73a11.81,11.81,0,0,1-4.05-2.19c-1.69-1.4-1.61-2.88.33-4,4.92-2.78,9.79-5.75,15-7.85C226.75,177.18,230.71,177.19,234.33,176.6Zm-6.68,13.52c-.26-2.28-.55-4.74-.82-7-2.29.74-4.39,1.09-6.12,2.09-1.22.71-3,2.74-2.67,3.39.68,1.52,2.31,2.15,4.42,1.31C223.81,189.35,225.63,190,227.65,190.12Zm16.55-6.34V188l3.29-1.87Z" transform="translate(-25.83 -16.11)"></path><path d="M345.18,197.64c-10.11-.47-20.23-.73-30.31-1.52a17.84,17.84,0,0,1-10.72-4.86c-2.09-1.93-2.58-3.62-.82-5.84,1.11-1.41,2.92-2.27,4.43-3.35.26-.19.81-.23.85-.42.71-3.61,3.92-3.56,6.33-3.73,5.6-.39,11.36-1.56,16.82.49a170.08,170.08,0,0,1,18.85,8.15c1.62.85,4,2.79,3.72,5.77-.36,4-2.92,4.43-7.18,4.84a10.57,10.57,0,0,1-1.93-.17Zm-33.59-10.31,5.18,1.12a11.89,11.89,0,0,0,.41-3c-.08-.8-.64-2.17-1.1-2.22C313.67,182.93,312.93,184.94,311.59,187.33Zm24.49,4.46,5.18,1.13a13,13,0,0,0,.41-3c-.08-.81-.65-2.18-1.11-2.22C338.15,187.4,337.41,189.4,336.08,191.79Z" transform="translate(-25.83 -16.11)"></path></g></svg>